HIERARCHY
ROOT Hips
{
  OFFSET 0.0000 0.0000 0.0000
  CHANNELS 6 Xposition Yposition Zposition Zrotation Xrotation Yrotation
  JOINT LeftHip
  {
    OFFSET 3.4300 0.0000 -0.0000
    CHANNELS 3 Zrotation Xrotation Yrotation
    JOINT LeftKnee
    {
      OFFSET 0.0000 -18.4700 0.0000
      CHANNELS 3 Zrotation Xrotation Yrotation
      JOINT LeftAnkle
      {
        OFFSET 0.0000 -17.9500 -0.0000
        CHANNELS 3 Zrotation Xrotation Yrotation
        End Site
        {
            OFFSET 0.0000 -3.1200 0.0000
        }
      }
    }
  }
  JOINT RightHip
  {
    OFFSET -3.4300 0.0000 0.0000
    CHANNELS 3 Zrotation Xrotation Yrotation
    JOINT RightKnee
    {
      OFFSET 0.0000 -18.4700 0.0000
      CHANNELS 3 Zrotation Xrotation Yrotation
      JOINT RightAnkle
      {
        OFFSET 0.0000 -17.9500 0.0000
        CHANNELS 3 Zrotation Xrotation Yrotation
        End Site
        {
            OFFSET 0.0000 -3.1200 0.0000
        }
      }
    }
  }
  JOINT Chest
  {
    OFFSET 0.0000 4.5700 -0.0000
    CHANNELS 3 Zrotation Xrotation Yrotation
    JOINT Chest2
    {
      OFFSET 0.0000 6.5700 0.0000
      CHANNELS 3 Zrotation Xrotation Yrotation
      JOINT LeftCollar
      {
        OFFSET 1.0600 4.1900 1.7600
        CHANNELS 3 Zrotation Xrotation Yrotation
        JOINT LeftShoulder
        {
          OFFSET 5.8100 0.0000 -0.0000
          CHANNELS 3 Zrotation Xrotation Yrotation
          JOINT LeftElbow
          {
            OFFSET 0.0000 -12.0800 -0.0000
            CHANNELS 3 Zrotation Xrotation Yrotation
            JOINT LeftWrist
            {
              OFFSET 0.0000 -9.8200 0.0000
              CHANNELS 3 Zrotation Xrotation Yrotation
              End Site
              {
                  OFFSET 0.0000 -7.3700 0.0000
              }
            }
          }
        }
      }
      JOINT RightCollar
      {
        OFFSET -1.0600 4.1900 1.7600
        CHANNELS 3 Zrotation Xrotation Yrotation
        JOINT RightShoulder
        {
          OFFSET -6.0600 0.0000 -0.0000
          CHANNELS 3 Zrotation Xrotation Yrotation
          JOINT RightElbow
          {
            OFFSET 0.0000 -11.0800 -0.0000
            CHANNELS 3 Zrotation Xrotation Yrotation
            JOINT RightWrist
            {
              OFFSET 0.0000 -9.8200 0.0000
              CHANNELS 3 Zrotation Xrotation Yrotation
              End Site
              {
                  OFFSET -0.0000 -7.1400 0.0000
              }
            }
          }
        }
      }
      JOINT Neck
      {
        OFFSET 0.0000 4.0500 0.0000
        CHANNELS 3 Zrotation Xrotation Yrotation
        JOINT Head
        {
          OFFSET 0.0000 5.1900 0.0000
          CHANNELS 3 Zrotation Xrotation Yrotation
          End Site
          {
              OFFSET 0.0000 4.1400 0.0000
          }
        }
      }
    }
  }
}
MOTION
Frames:	27
Frame Time:	0.016667
27.4571 45.6672 17.9518 -0.13 6.85 44.61 -0.10 -43.00 -0.81 2.44 84.24 11.39 13.78 2.45 -0.91 -3.53 -24.23 -7.52 -0.09 24.09 -12.27 -14.37 -1.08 -0.74 -3.36 4.28 0.79 -0.15 0.19 0.15 10.00 0.00 0.00 52.42 -20.03 10.08 0.04 -12.43 0.01 3.71 -18.16 -26.70 -10.00 -0.00 -0.00 -27.96 10.80 -3.41 0.27 -60.72 0.24 -15.29 -12.82 25.20 -3.46 -0.82 -12.08 -1.55 -16.06 -13.06 
27.7493 46.0898 17.9903 0.25 7.98 43.59 -1.69 -44.31 -2.24 1.26 79.56 12.15 12.76 1.64 -0.66 -4.83 -24.76 -8.18 -0.09 24.60 -11.94 -13.35 -0.66 -0.63 -4.12 4.07 0.95 -0.18 0.18 0.17 10.00 0.00 0.00 49.12 -17.03 5.91 0.03 -13.67 0.01 3.72 -17.32 -24.83 -10.00 -0.00 -0.00 -27.20 9.50 -1.74 0.26 -59.38 0.22 -16.03 -12.71 23.88 -3.48 -0.82 -12.14 -2.32 -17.15 -13.12 
27.9280 46.3508 18.0068 -0.86 9.48 42.12 -1.39 -46.78 -2.94 0.78 74.70 11.39 10.07 0.52 -0.63 -4.78 -27.80 -7.60 -0.09 26.82 -11.40 -14.88 -1.85 -0.90 -4.30 2.54 0.94 -0.19 0.11 0.17 10.00 0.00 0.00 45.24 -12.41 3.59 0.02 -15.60 0.01 4.22 -15.53 -22.88 -10.00 -0.00 -0.00 -26.39 7.64 0.70 0.24 -57.52 0.20 -16.90 -12.02 21.87 -3.30 -0.86 -11.49 -1.75 -18.13 -12.48 
28.2757 46.5121 18.1009 0.22 9.17 40.93 -1.92 -45.42 -3.85 0.48 68.70 9.21 8.85 0.59 -0.66 -5.74 -28.12 -8.59 -0.10 30.07 -11.24 -16.53 -3.28 -1.36 -4.49 3.99 1.03 -0.20 0.18 0.17 10.00 0.00 0.00 40.68 -8.76 1.29 0.01 -17.60 0.00 5.08 -15.13 -20.19 -10.00 -0.00 -0.00 -24.76 6.10 1.83 0.21 -55.42 0.17 -17.58 -13.07 20.40 -3.23 -0.87 -11.25 -2.44 -20.10 -12.27 
28.5972 46.5724 18.1678 1.04 8.89 39.03 -1.61 -43.98 -3.93 0.31 62.59 6.46 7.31 0.55 -0.68 -6.23 -28.62 -9.06 -0.10 32.57 -9.73 -17.06 -3.79 -1.53 -4.87 5.24 1.16 -0.21 0.23 0.18 10.00 0.00 0.00 36.63 -4.15 -0.68 0.00 -20.64 0.00 5.69 -13.92 -18.18 -10.00 -0.00 -0.00 -23.63 3.30 3.30 0.17 -52.13 0.14 -16.54 -13.26 18.85 -3.07 -0.90 -10.69 -1.59 -22.00 -11.76 
28.9136 46.4831 18.3035 0.88 8.39 37.15 0.11 -42.92 -3.05 0.21 57.05 3.96 6.42 0.78 -0.70 -5.54 -29.62 -8.86 -0.10 35.28 -8.61 -18.44 -4.82 -1.92 -4.36 5.61 1.04 -0.19 0.25 0.16 10.00 0.00 0.00 32.11 0.94 -1.47 -0.01 -24.21 -0.01 6.43 -12.69 -16.33 -10.00 -0.00 -0.00 -22.03 0.53 5.00 0.14 -48.86 0.11 -16.01 -13.01 17.72 -2.89 -0.94 -10.05 -1.40 -23.42 -11.10 
29.3106 46.2838 18.4169 0.65 8.06 35.36 1.55 -41.86 -2.05 0.14 52.06 1.42 5.10 1.56 -0.69 -5.08 -30.68 -8.85 -0.11 38.17 -8.50 -18.33 -5.69 -2.13 -3.52 5.81 0.85 -0.15 0.26 0.13 10.00 0.00 0.00 27.23 5.83 -1.78 -0.03 -27.62 -0.01 7.70 -12.01 -14.78 -10.00 -0.00 -0.00 -20.77 -1.69 6.37 0.11 -45.54 0.08 -14.83 -14.63 17.17 -2.61 -0.98 -9.08 -1.32 -24.82 -10.07 
29.6262 45.9540 18.3956 -0.19 9.50 34.48 1.61 -42.84 -2.55 0.08 47.55 -1.73 3.82 3.91 -0.77 -5.43 -33.92 -8.95 -0.13 41.23 -9.23 -17.50 -6.15 -2.15 -3.26 4.26 0.74 -0.14 0.19 0.12 10.00 0.00 0.00 22.97 9.31 -2.38 -0.04 -30.73 -0.02 8.95 -10.70 -12.94 -10.00 -0.00 -0.00 -19.42 -2.21 6.75 0.10 -43.91 0.07 -14.16 -14.52 17.39 -2.63 -0.98 -9.16 -1.53 -25.97 -10.21 
30.0117 45.4553 18.6187 0.31 8.56 31.88 3.17 -40.92 -1.29 0.04 45.03 -4.58 3.80 5.42 -0.71 -4.49 -34.48 -7.84 -0.15 44.51 -9.99 -14.83 -6.69 -1.95 -3.12 5.11 0.73 -0.14 0.23 0.11 10.00 0.00 0.00 18.26 13.45 -0.63 -0.06 -33.76 -0.03 10.10 -9.41 -11.23 -10.00 -0.00 -0.00 -18.00 -3.84 8.45 0.09 -41.98 0.06 -14.79 -14.72 15.74 -2.33 -1.02 -8.09 -1.48 -26.50 -9.04 
30.3718 44.8103 18.8216 0.15 7.67 30.37 4.61 -39.67 -0.23 0.04 44.61 -4.74 4.09 5.13 -0.76 -3.50 -35.32 -7.39 -0.18 47.57 -11.08 -12.77 -7.55 -1.91 -2.25 5.53 0.53 -0.10 0.24 0.08 10.00 0.00 0.00 13.92 16.02 0.64 -0.08 -36.77 -0.05 10.72 -7.37 -8.94 -10.00 -0.00 -0.00 -17.33 -3.93 9.57 0.09 -41.61 0.06 -15.34 -14.60 14.56 -2.31 -1.03 -8.03 -1.81 -27.00 -8.99 
30.6571 44.0573 19.0036 -0.24 6.62 28.62 6.55 -38.77 1.36 0.06 46.14 -3.62 3.68 3.51 -0.76 -1.86 -35.86 -6.14 -0.20 49.90 -11.58 -12.77 -7.92 -2.02 -1.14 5.99 0.27 -0.05 0.26 0.04 10.00 0.00 0.00 10.19 17.16 1.38 -0.09 -39.29 -0.06 11.47 -5.19 -5.93 -10.00 -0.00 -0.00 -16.52 -4.80 9.83 0.08 -40.25 0.05 -15.13 -15.37 14.37 -2.34 -1.02 -8.15 -1.77 -27.06 -9.12 
30.8505 43.2715 19.1513 -0.97 6.12 26.95 8.66 -38.61 3.61 0.06 47.72 -3.60 3.96 1.74 -0.67 0.21 -36.60 -4.01 -0.23 51.53 -12.79 -12.06 -7.75 -1.89 -0.10 5.88 0.02 -0.00 0.26 0.00 10.00 0.00 0.00 7.99 17.06 0.69 -0.12 -41.98 -0.08 12.82 -3.54 -2.16 -10.00 -0.00 -0.00 -15.92 -5.63 9.52 0.07 -39.04 0.05 -14.88 -16.35 14.75 -2.39 -1.02 -8.31 -2.51 -27.18 -9.32 
31.2586 42.4651 19.3660 -1.69 5.47 26.92 9.18 -38.78 3.97 0.08 49.96 -3.29 5.31 -0.40 -0.50 0.79 -36.56 -4.08 -0.25 53.10 -13.34 -10.12 -8.17 -1.76 1.39 5.39 -0.33 0.06 0.24 -0.05 10.00 0.00 0.00 7.18 15.94 -1.90 -0.14 -44.83 -0.10 13.68 -2.91 0.60 -10.00 -0.00 -0.00 -16.62 -3.21 8.90 0.09 -41.05 0.06 -15.71 -16.24 13.91 -2.60 -0.98 -9.03 -2.71 -26.26 -10.08 
31.6862 41.7251 19.8409 -1.10 2.86 24.86 10.60 -35.65 5.98 0.09 52.14 -3.28 6.53 -3.14 -0.04 1.87 -33.74 -3.20 -0.25 54.57 -12.14 -9.90 -9.47 -1.92 2.04 6.89 -0.50 0.09 0.30 -0.07 10.00 0.00 0.00 6.99 15.18 -2.39 -0.16 -47.77 -0.12 13.55 -3.44 0.41 -10.00 -0.00 -0.00 -16.85 -2.72 8.96 0.09 -41.48 0.06 -16.34 -16.63 13.13 -2.56 -0.99 -8.90 -2.24 -24.17 -9.85 
31.9325 41.1703 20.1613 -0.49 0.81 24.71 10.86 -33.19 6.44 0.09 53.07 -4.08 7.80 -4.63 0.21 2.18 -31.03 -3.30 -0.26 54.84 -12.22 -7.43 -9.37 -1.49 2.52 8.42 -0.65 0.11 0.37 -0.08 10.00 0.00 0.00 8.27 12.08 -3.69 -0.18 -49.55 -0.14 11.72 -5.07 -4.10 -10.00 -0.00 -0.00 -16.91 -0.93 6.73 0.10 -42.82 0.07 -16.08 -17.81 14.28 -2.87 -0.94 -9.98 -2.34 -22.93 -10.99 
32.1055 40.7375 20.3008 -1.00 -0.02 24.82 11.67 -32.76 6.86 0.09 54.08 -4.56 8.87 -5.57 0.35 3.09 -30.33 -2.83 -0.26 55.15 -12.18 -9.17 -10.46 -1.96 3.64 8.66 -0.95 0.16 0.38 -0.12 10.00 0.00 0.00 9.49 7.94 -4.13 -0.19 -51.34 -0.15 11.18 -7.22 -8.00 -10.00 -0.00 -0.00 -17.17 0.84 4.12 0.11 -44.55 0.08 -15.48 -18.36 15.85 -3.18 -0.88 -11.08 -2.23 -22.26 -12.19 
32.3141 40.5635 20.4841 -0.59 -1.34 24.86 11.55 -30.98 6.84 0.09 54.13 -4.81 9.68 -5.98 0.45 2.94 -28.37 -3.41 -0.25 55.02 -10.85 -10.16 -11.44 -2.30 4.22 9.65 -1.14 0.18 0.43 -0.14 10.00 0.00 0.00 11.23 3.02 -3.72 -0.20 -52.52 -0.16 9.18 -7.38 -13.93 -10.00 -0.00 -0.00 -17.37 2.38 0.76 0.12 -46.58 0.09 -15.68 -16.18 16.73 -3.58 -0.80 -12.48 -2.67 -20.91 -13.65 
32.4353 40.5938 20.5404 -0.70 -1.30 24.35 11.61 -30.62 7.10 0.09 53.89 -4.69 9.96 -5.85 0.49 3.01 -27.88 -3.22 -0.23 54.23 -10.08 -10.66 -11.53 -2.39 4.49 9.35 -1.20 0.19 0.41 -0.15 10.00 0.00 0.00 13.52 -2.34 -1.72 -0.20 -53.51 -0.17 10.00 -8.07 -15.48 -10.00 -0.00 -0.00 -17.73 3.06 -2.91 0.14 -48.45 0.11 -18.15 -13.89 15.50 -3.91 -0.72 -13.66 -2.66 -19.35 -14.87 
32.6506 40.8995 20.5700 -0.25 0.24 23.22 9.95 -30.51 6.49 0.09 52.11 -3.16 9.51 -5.09 0.44 1.55 -28.15 -3.49 -0.21 52.56 -8.81 -11.05 -10.82 -2.30 3.69 7.77 -0.94 0.16 0.34 -0.12 10.00 0.00 0.00 16.79 -7.12 0.37 -0.23 -55.40 -0.19 11.28 -8.14 -14.59 -10.00 -0.00 -0.00 -18.62 4.60 -7.76 0.19 -53.06 0.15 -17.99 -12.63 16.44 -4.47 -0.57 -15.68 -2.99 -16.95 -16.93 
32.8757 41.4104 20.6047 1.36 2.07 21.80 6.75 -29.54 5.05 0.09 48.92 -0.82 8.58 -3.46 0.25 -1.35 -28.08 -4.35 -0.18 50.54 -7.32 -11.80 -9.91 -2.19 1.64 6.30 -0.40 0.07 0.28 -0.06 10.00 0.00 0.00 22.39 -11.09 1.84 -0.30 -59.04 -0.26 13.28 -6.10 -10.96 -10.00 -0.00 -0.00 -20.90 7.68 -9.91 0.31 -60.60 0.27 -17.30 -9.97 16.91 -5.07 -0.39 -17.82 -3.47 -13.43 -19.02 
33.1185 42.0697 20.5898 3.02 5.43 20.87 2.98 -29.59 3.75 0.08 44.42 0.78 7.33 -0.56 0.01 -4.92 -29.18 -5.58 -0.15 47.83 -6.26 -10.45 -8.18 -1.62 -0.78 2.96 0.16 -0.03 0.13 0.02 10.00 0.00 0.00 26.89 -13.81 3.41 -0.39 -62.64 -0.35 15.77 -4.75 -7.67 -10.00 -0.00 -0.00 -21.20 11.34 -12.53 0.51 -67.85 0.47 -17.06 -10.13 17.76 -5.60 -0.21 -19.77 -3.82 -9.73 -20.84 
33.4357 43.1503 20.6301 4.25 7.00 18.57 0.69 -25.97 3.34 0.06 36.04 2.23 8.47 2.36 -0.25 -7.17 -27.48 -6.35 -0.09 42.23 -2.55 -16.66 -7.20 -2.30 -1.98 1.39 0.40 -0.09 0.06 0.07 10.00 0.00 0.00 31.54 -15.45 7.36 -0.46 -65.10 -0.42 16.28 -4.55 -7.34 -10.00 -0.00 -0.00 -22.31 12.41 -13.84 0.78 -73.58 0.75 -17.58 -9.59 18.74 -5.57 -0.23 -19.64 -3.37 -7.00 -20.58 
33.6219 44.2160 20.7620 5.53 6.98 16.98 -0.73 -23.18 3.49 0.06 31.88 4.29 7.57 4.82 -0.41 -8.72 -23.05 -7.55 -0.04 34.32 0.38 -17.85 -4.83 -1.73 -2.91 1.54 0.60 -0.13 0.07 0.10 10.00 0.00 0.00 36.10 -16.67 11.22 -0.57 -68.32 -0.53 17.43 -3.22 -6.14 -10.00 -0.00 -0.00 -22.52 14.07 -16.10 1.42 -79.83 1.40 -16.99 -10.07 21.99 -5.68 -0.18 -20.07 -2.64 -4.57 -21.01 
33.7831 45.3201 20.7633 6.49 7.76 14.65 -1.73 -21.97 3.30 0.07 28.62 6.72 5.57 8.54 -0.55 -10.06 -21.39 -8.33 -0.01 29.29 2.23 -16.89 -2.09 -1.02 -3.63 0.98 0.73 -0.16 0.04 0.14 10.00 0.00 0.00 40.60 -16.49 15.71 -0.68 -70.88 -0.65 17.86 -3.55 -7.81 -10.00 -0.00 -0.00 -23.23 14.07 -17.18 2.93 -84.67 2.92 -17.06 -11.15 24.78 -5.67 -0.19 -20.01 -2.52 -3.00 -20.88 
33.9804 46.4505 20.7964 7.28 7.78 12.70 -2.39 -20.86 3.06 0.07 26.50 7.51 4.97 11.27 -0.63 -11.04 -19.38 -9.47 0.01 24.62 4.47 -15.01 1.14 -0.35 -3.58 1.06 0.73 -0.16 0.05 0.14 10.00 0.00 0.00 44.72 -16.09 20.05 -0.80 -72.94 -0.77 18.28 -3.03 -7.91 -10.00 -0.00 -0.00 -24.05 14.25 -18.98 21.42 -89.22 21.42 -15.49 -11.95 29.60 -5.70 -0.18 -20.13 -3.39 -1.09 -20.72 
34.1509 47.5320 20.8327 8.15 6.76 10.45 -2.76 -19.46 2.77 0.07 26.05 7.60 4.56 12.95 -0.65 -11.85 -17.40 -10.50 0.03 21.93 6.27 -11.74 4.75 0.12 -3.71 2.65 0.80 -0.16 0.12 0.14 10.00 0.00 0.00 49.42 -16.29 25.95 -0.81 -73.09 -0.78 17.74 -3.67 -7.48 -10.00 -0.00 -0.00 -25.89 14.32 -20.75 175.42 -86.13 175.43 -14.88 -12.62 31.16 -5.60 -0.21 -19.74 -1.95 -0.26 -20.56 
34.3045 48.5683 20.7835 8.42 5.74 8.79 -2.77 -19.40 2.02 0.08 28.26 8.03 5.24 14.51 -0.84 -12.25 -16.62 -11.18 0.02 21.80 5.47 -10.09 7.27 0.28 -3.09 3.98 0.71 -0.14 0.18 0.12 10.00 0.00 0.00 53.57 -15.97 31.12 -0.79 -72.67 -0.75 17.06 -3.41 -6.97 -10.00 -0.00 -0.00 -28.07 13.02 -22.40 176.94 -84.02 176.96 -15.01 -13.55 32.05 -5.60 -0.21 -19.75 -2.64 1.32 -20.33 
